<svg width="208" height="22" viewBox="0 0 208 22" fill="none" xmlns="http://www.w3.org/2000/svg">
<mask id="mask0" mask-type="alpha" maskUnits="userSpaceOnUse" x="0" y="0" width="208" height="22">
<path fill-rule="evenodd" clip-rule="evenodd" d="M208 22H0V0L208 0V22V22Z" fill="white"/>
</mask>
<g mask="url(#mask0)">
<path fill-rule="evenodd" clip-rule="evenodd" d="M178.947 14.324C178.947 13.6751 178.845 13.0962 178.643 12.5857C178.441 12.0795 178.168 11.6474 177.821 11.2938C177.478 10.943 177.071 10.6699 176.624 10.4866C176.178 10.2991 175.702 10.205 175.225 10.205C174.249 10.1965 173.31 10.5893 172.625 11.2938C172.281 11.6474 172.005 12.0795 171.803 12.5857C171.6 13.0962 171.499 13.6751 171.499 14.324C171.499 14.9706 171.6 15.5496 171.803 16.0594C172.005 16.5684 172.281 16.9977 172.625 17.3513C173.31 18.0565 174.249 18.4486 175.225 18.44C175.705 18.44 176.169 18.3488 176.624 18.162C177.071 17.9752 177.478 17.7028 177.821 17.3513C178.168 16.9977 178.441 16.5684 178.643 16.0594C178.845 15.5496 178.947 14.9706 178.947 14.324V14.324ZM182.164 11.2353C182.541 12.1771 182.725 13.2046 182.725 14.324C182.725 15.4405 182.541 16.4686 182.164 17.4098C181.789 18.3509 181.269 19.1616 180.606 19.8389C179.942 20.5127 179.154 21.0417 178.238 21.426C177.326 21.8075 176.32 22 175.225 22C174.125 22 173.12 21.8075 172.207 21.426C171.294 21.0417 170.505 20.5127 169.84 19.8354C169.176 19.1616 168.657 18.3509 168.283 17.4098C167.908 16.4686 167.72 15.4405 167.72 14.324C167.72 13.2046 167.908 12.1771 168.283 11.2353C168.657 10.2941 169.176 9.48347 169.84 8.80684C170.505 8.13307 171.294 7.60403 172.207 7.21902C173.12 6.83757 174.125 6.64577 175.225 6.64577C176.32 6.64577 177.326 6.83757 178.238 7.21902C179.154 7.60403 179.942 8.13307 180.606 8.80684C181.269 9.48347 181.789 10.2941 182.164 11.2353V11.2353ZM158.633 11.2938C159.318 10.5893 160.256 10.1965 161.232 10.205C161.709 10.205 162.185 10.2991 162.631 10.4866C163.078 10.6699 163.485 10.943 163.828 11.2938C163.914 11.3814 163.982 11.4884 164.06 11.5861L166.729 8.93875C166.689 8.89597 166.654 8.8482 166.613 8.80684C165.949 8.13307 165.162 7.60403 164.245 7.21902C163.333 6.83757 162.327 6.64577 161.232 6.64577C160.133 6.64577 159.127 6.83757 158.214 7.21902C157.302 7.60403 156.512 8.13307 155.847 8.80684C155.183 9.48347 154.664 10.2941 154.29 11.2353C153.916 12.1771 153.727 13.2046 153.727 14.324C153.727 15.4405 153.916 16.4686 154.29 17.4098C154.664 18.3509 155.183 19.1616 155.847 19.8354C156.512 20.5127 157.302 21.0417 158.214 21.426C159.127 21.8075 160.133 22 161.232 22C162.327 22 163.333 21.8075 164.245 21.426C165.162 21.0417 165.949 20.5127 166.613 19.8389C166.654 19.7969 166.689 19.7498 166.729 19.707L164.06 17.0597C163.982 17.1567 163.914 17.2636 163.828 17.3513C163.485 17.7028 163.078 17.9752 162.631 18.162C162.176 18.3488 161.712 18.44 161.232 18.44C160.256 18.4486 159.318 18.0565 158.633 17.3513C158.288 16.9977 158.012 16.5684 157.81 16.0594C157.608 15.5496 157.506 14.9706 157.506 14.324C157.506 13.6751 157.608 13.0962 157.81 12.5857C158.012 12.0795 158.288 11.6474 158.633 11.2938V11.2938ZM207.668 10.2799C207.445 9.52554 207.121 8.87672 206.685 8.33841C206.254 7.79868 205.699 7.38087 205.027 7.08854C204.354 6.79336 203.575 6.64577 202.69 6.64577C201.384 6.64577 200.531 6.85753 199.781 7.2782C199.047 7.6846 198.12 8.48172 197.68 9.20255C197.68 9.20255 197.654 9.24248 197.619 9.29809C197.448 8.94802 197.249 8.62646 197.017 8.33841C196.585 7.79868 196.031 7.38087 195.358 7.08854C194.686 6.79336 193.907 6.64577 193.021 6.64577C192.059 6.64577 191.202 6.85753 190.452 7.2782C189.718 7.6846 189.103 8.27781 188.663 8.99935H188.433V7.11635H184.882V21.5287H188.663V14.4687C188.66 13.909 188.733 13.3493 188.877 12.8089C189.022 12.2884 189.236 11.837 189.515 11.4556C189.782 11.082 190.127 10.7704 190.524 10.5451C190.919 10.3162 191.377 10.205 191.896 10.205C192.762 10.205 193.42 10.456 193.871 10.9537C194.325 11.4556 194.549 12.2242 194.549 13.263V21.5287H198.332V14.4651C198.329 13.9069 198.402 13.3486 198.547 12.8089C198.692 12.2884 198.905 11.837 199.185 11.4556C199.452 11.082 199.797 10.7704 200.192 10.5451C200.589 10.3162 201.045 10.205 201.564 10.205C202.43 10.205 203.09 10.456 203.54 10.9537C203.995 11.4556 204.218 12.2242 204.218 13.263V21.5287H208V12.7925C208 11.8727 207.888 11.0349 207.668 10.2799V10.2799ZM148.187 21.5287H151.969V17.675H148.187V21.5287ZM95.0365 14.324C95.0365 13.6751 94.9309 13.0962 94.7196 12.5857C94.509 12.0795 94.2285 11.6474 93.8842 11.2938C93.5421 10.943 93.1349 10.6699 92.6871 10.4866C92.231 10.297 91.7461 10.2022 91.2578 10.205C90.7568 10.205 90.2818 10.3027 89.8284 10.5002C89.3792 10.6927 88.972 10.9708 88.6313 11.3216C88.2843 11.6752 88.0051 12.1073 87.7952 12.6163C87.5819 13.1268 87.4755 13.6951 87.4755 14.324C87.4755 14.9507 87.5819 15.5189 87.7952 16.0287C88.0051 16.5378 88.2843 16.9699 88.6313 17.3235C88.9776 17.675 89.3743 17.9502 89.8284 18.1456C90.279 18.3431 90.7568 18.44 91.2578 18.44C91.758 18.44 92.2331 18.3488 92.6871 18.162C93.1349 17.9752 93.5421 17.7028 93.8842 17.3513C94.2285 16.9977 94.509 16.5684 94.7196 16.0594C94.9309 15.5496 95.0365 14.9706 95.0365 14.324V14.324ZM94.8071 0.471286H98.5872V21.5287H95.0365V19.794H94.8071C94.4607 20.4008 93.922 20.9191 93.1902 21.3505C92.4605 21.7825 91.5558 22 90.4791 22C89.5744 22 88.7125 21.8075 87.8925 21.426C87.0781 21.0446 86.3435 20.5041 85.7292 19.8354C85.1058 19.1616 84.6084 18.3509 84.2446 17.4098C83.8787 16.4686 83.6946 15.4405 83.6946 14.324C83.6946 13.2046 83.8787 12.1771 84.2446 11.2353C84.6084 10.2941 85.1058 9.48347 85.7292 8.80684C86.3435 8.14091 87.0781 7.60118 87.8925 7.21902C88.7048 6.84042 89.5842 6.64292 90.4791 6.64577C91.5558 6.64577 92.4605 6.86252 93.1902 7.29459C93.922 7.72595 94.4607 8.2443 94.8071 8.85176H95.0365L94.8071 6.79336V0.471286ZM113.954 8.33841C113.522 7.79868 112.968 7.38087 112.295 7.08854C111.623 6.79336 110.845 6.64577 109.959 6.64577C108.997 6.64577 108.139 6.85753 107.39 7.2782C106.655 7.6846 106.041 8.27781 105.6 8.99935H105.371V7.11635H101.821V21.5287H105.6V14.4687C105.598 13.909 105.671 13.3493 105.816 12.8089C105.961 12.2884 106.173 11.837 106.453 11.4556C106.721 11.082 107.065 10.7704 107.461 10.5451C107.857 10.3162 108.314 10.205 108.833 10.205C109.699 10.205 110.359 10.456 110.809 10.9537C111.263 11.4556 111.487 12.2242 111.487 13.263V21.5287H115.269V12.7925C115.269 11.8727 115.157 11.0349 114.936 10.2799C114.714 9.52554 114.389 8.87672 113.954 8.33841V8.33841ZM141.385 21.5287H145.168V7.11635H141.385V21.5287ZM118.617 21.5287H122.397V7.11635H118.617V21.5287ZM139.222 7.35306V7.11635H134.548L129.814 11.9404H129.642V0.471286H125.86V21.5287H129.642V16.8807L131.315 15.2045L135.181 21.5287H139.656V21.292L133.972 12.5579L139.222 7.35306ZM51.0829 14.324C51.0829 13.6751 50.9815 13.0962 50.7793 12.5857C50.5771 12.0795 50.3042 11.6474 49.9572 11.2938C49.6172 10.943 49.2072 10.6699 48.7601 10.4866C48.3173 10.2991 47.8408 10.205 47.3609 10.205C46.3842 10.1965 45.4494 10.5893 44.7645 11.2938C44.4175 11.6474 44.1432 12.0795 43.9417 12.5857C43.7395 13.0962 43.6381 13.6751 43.6381 14.324C43.6381 14.9706 43.7395 15.5496 43.9417 16.0594C44.1432 16.5684 44.4175 16.9977 44.7645 17.3513C45.4494 18.0565 46.3842 18.4486 47.3609 18.44C47.8408 18.44 48.3082 18.3488 48.7601 18.162C49.2072 17.9752 49.6172 17.7028 49.9572 17.3513C50.3042 16.9977 50.5771 16.5684 50.7793 16.0594C50.9815 15.5496 51.0829 14.9706 51.0829 14.324V14.324ZM54.3027 11.2353C54.677 12.1771 54.8645 13.2046 54.8645 14.324C54.8645 15.4405 54.677 16.4686 54.3027 17.4098C53.9256 18.3509 53.4051 19.1616 52.7411 19.8389C52.0778 20.5127 51.2907 21.0417 50.3742 21.426C49.4626 21.8075 48.4558 22 47.3609 22C46.2638 22 45.2591 21.8075 44.3426 21.426C43.431 21.0417 42.6432 20.5127 41.9764 19.8354C41.3145 19.1616 40.7961 18.3509 40.419 17.4098C40.0447 16.4686 39.8551 15.4405 39.8551 14.324C39.8551 13.2046 40.0447 12.1771 40.419 11.2353C40.7961 10.2941 41.3145 9.48347 41.9764 8.80684C42.6432 8.13307 43.431 7.60403 44.3426 7.21902C45.2591 6.83757 46.2638 6.64577 47.3609 6.64577C48.4558 6.64577 49.4626 6.83757 50.377 7.21902C51.2907 7.60403 52.0778 8.13307 52.7446 8.80684C53.4051 9.48347 53.9256 10.2941 54.3027 11.2353V11.2353ZM37.8359 9.97116H27.7072V13.3522H34.2006C34.0453 14.0181 33.8291 14.622 33.5506 15.1624C33.2722 15.7 32.9384 16.1456 32.5564 16.4993C32.0177 17.0091 31.3663 17.4269 30.6072 17.7499C29.8474 18.0729 28.9176 18.2347 27.8227 18.2347C26.8606 18.2347 25.956 18.0622 25.1087 17.7192C24.2776 17.3877 23.5185 16.8921 22.8734 16.2626C22.2276 15.6359 21.7197 14.8751 21.3426 13.9839C20.9683 13.0926 20.7794 12.0959 20.7794 10.9986C20.7794 9.90128 20.9683 8.90738 21.3426 8.01329C21.7197 7.12205 22.2227 6.36129 22.8594 5.73457C23.4954 5.10572 24.2531 4.60948 25.0815 4.27794C25.9259 3.9357 26.8222 3.76316 27.7653 3.76316C28.9176 3.76316 29.9097 3.95495 30.736 4.33711C31.5643 4.72142 32.3151 5.27256 32.9881 5.99981L35.6719 3.32324C34.7288 2.28442 33.6003 1.4709 32.2801 0.883394C30.9626 0.293039 29.4675 0 27.7926 0C26.2918 0 24.8793 0.273075 23.5506 0.822077C22.2227 1.37322 21.0697 2.13683 20.0881 3.11719C19.1072 4.09755 18.3285 5.2583 17.7485 6.60371C17.172 7.94627 16.8852 9.41146 16.8852 10.9986C16.8852 12.5857 17.172 14.0537 17.7485 15.3963C18.3285 16.7389 19.1072 17.9003 20.0881 18.8807C21.0697 19.861 22.2227 20.6268 23.5506 21.1758C24.8793 21.7241 26.2918 22 27.7926 22C29.4486 22 30.9193 21.7241 32.2087 21.1758C33.4988 20.6268 34.6022 19.8525 35.5271 18.8529C36.3793 17.9331 37.0292 16.8422 37.4308 15.6466C37.8359 14.4494 38.0381 13.1768 38.0381 11.8235C38.0381 11.4884 38.0185 11.1547 37.9808 10.8232C37.943 10.4888 37.8933 10.205 37.8359 9.97116V9.97116ZM11.2279 14.324C11.2279 13.6751 11.1271 13.0962 10.9249 12.5857C10.7227 12.0795 10.4491 11.6474 10.1014 11.2938C9.76 10.943 9.35281 10.6699 8.90434 10.4866C8.45937 10.2991 7.98361 10.205 7.50506 10.205C6.52906 10.1965 5.59224 10.5893 4.90659 11.2938C4.56166 11.6474 4.28531 12.0795 4.08381 12.5857C3.88161 13.0962 3.78086 13.6751 3.78086 14.324C3.78086 14.9706 3.88161 15.5496 4.08381 16.0594C4.28531 16.5684 4.56166 16.9977 4.90659 17.3513C5.59224 18.0565 6.52906 18.4486 7.50506 18.44C7.98641 18.44 8.45097 18.3488 8.90434 18.162C9.35281 17.9752 9.76 17.7028 10.1014 17.3513C10.4491 16.9977 10.7227 16.5684 10.9249 16.0594C11.1271 15.5496 11.2279 14.9706 11.2279 14.324V14.324ZM14.4441 11.2353C14.8219 12.1771 15.0073 13.2046 15.0073 14.324C15.0073 15.4405 14.8219 16.4686 14.4441 17.4098C14.0705 18.3509 13.5507 19.1616 12.8867 19.8389C12.2227 20.5127 11.4356 21.0417 10.5198 21.426C9.60748 21.8075 8.6014 22 7.50506 22C6.40732 22 5.40123 21.8075 4.4882 21.426C3.57587 21.0417 2.78597 20.5127 2.12201 19.8354C1.45665 19.1616 0.93822 18.3509 0.563911 17.4098C0.188903 16.4686 0 15.4405 0 14.324C0 13.2046 0.188903 12.1771 0.563911 11.2353C0.93822 10.2941 1.45665 9.48347 2.12201 8.80684C2.78597 8.13307 3.57587 7.60403 4.4882 7.21902C5.40123 6.83757 6.40732 6.64577 7.50506 6.64577C8.6014 6.64577 9.60748 6.83757 10.5198 7.21902C11.4356 7.60403 12.2227 8.13307 12.8867 8.80684C13.5507 9.48347 14.0705 10.2941 14.4441 11.2353V11.2353ZM78.2976 14.324C78.2976 13.6751 78.1969 13.0962 77.9975 12.5857C77.7925 12.0795 77.5182 11.6474 77.1712 11.2938C76.8333 10.943 76.4233 10.6699 75.9741 10.4866C75.5312 10.2991 75.0569 10.205 74.5748 10.205C73.6023 10.1965 72.6655 10.5893 71.9784 11.2938C71.6314 11.6474 71.3586 12.0795 71.1564 12.5857C70.9542 13.0962 70.8534 13.6751 70.8534 14.324C70.8534 14.9706 70.9542 15.5496 71.1564 16.0594C71.3586 16.5684 71.6314 16.9977 71.9784 17.3513C72.6655 18.0565 73.6023 18.4486 74.5748 18.44C75.0569 18.44 75.5242 18.3488 75.9741 18.162C76.4233 17.9752 76.8333 17.7028 77.1712 17.3513C77.5182 16.9977 77.7925 16.5684 77.9947 16.0594C78.1969 15.5496 78.2976 14.9706 78.2976 14.324V14.324ZM81.5174 11.2353C81.891 12.1771 82.0806 13.2046 82.0806 14.324C82.0806 15.4405 81.891 16.4686 81.5174 17.4098C81.1403 18.3509 80.6211 19.1616 79.9572 19.8389C79.2946 20.5127 78.5047 21.0417 77.5903 21.426C76.6765 21.8075 75.6719 22 74.5748 22C73.4799 22 72.4731 21.8075 71.5587 21.426C70.6456 21.0417 69.8585 20.5127 69.1946 19.8354C68.5299 19.1616 68.0101 18.3509 67.633 17.4098C67.2587 16.4686 67.0712 15.4405 67.0712 14.324C67.0712 13.2046 67.2587 12.1771 67.633 11.2353C68.0101 10.2941 68.5299 9.48347 69.1946 8.80684C69.8585 8.13307 70.6456 7.60403 71.5587 7.21902C72.4731 6.83757 73.4799 6.64577 74.5748 6.64577C75.6719 6.64577 76.6765 6.83757 77.5931 7.21902C78.5047 7.60403 79.2946 8.13307 79.9593 8.80684C80.6211 9.48347 81.1403 10.2941 81.5174 11.2353V11.2353ZM66.1064 6.85183C66.4611 6.94951 66.764 7.07713 67.0138 7.23613L66.0042 10.7341C65.7614 10.6114 65.504 10.5194 65.2395 10.456C64.961 10.3861 64.6196 10.3526 64.2152 10.3526C63.6954 10.3526 63.2252 10.456 62.8019 10.662C62.3808 10.8645 62.0113 11.1604 61.7161 11.5276C61.4111 11.9176 61.176 12.3604 61.0256 12.8367C60.8618 13.3386 60.7793 13.8812 60.7793 14.4687V21.5287H56.9991V7.11635H60.5491V9.11628H60.7793C60.9542 8.76478 61.1837 8.44179 61.474 8.14662C61.7637 7.85144 62.0883 7.59548 62.4409 7.38087C62.8019 7.1634 63.1902 6.99656 63.5946 6.88249C63.9927 6.76556 64.4062 6.70709 64.8218 6.70424C65.3221 6.70424 65.7509 6.75415 66.1064 6.85183V6.85183Z" fill="white"/>
</g>
</svg>
