<svg id="ico" xmlns="http://www.w3.org/2000/svg" width="25" height="25" viewBox="0 0 25 25">
  <defs>
    <style>
      .cls-1 {
        fill-opacity: 0;
      }

      .cls-1, .cls-2 {
        fill-rule: evenodd;
      }

      .cls-2 {
        fill: #151616;
      }
    </style>
  </defs>
  <path id="Clip_2" data-name="Clip 2" class="cls-1" d="M3921,126v25h-25V126h25Z" transform="translate(-3896 -126)"/>
  <g id="Mask_by_Clip_2" data-name="Mask by Clip 2">
    <path id="Fill_1" data-name="Fill 1" class="cls-2" d="M3920.54,126.454a1.539,1.539,0,0,1,0,2.19l-9.85,9.855,9.86,9.858a1.548,1.548,0,0,1-2.19,2.189l-9.86-9.856-9.86,9.856a1.548,1.548,0,0,1-2.19-2.189l9.86-9.858-9.85-9.855a1.545,1.545,0,0,1,2.18-2.191l9.86,9.856,9.86-9.855a1.536,1.536,0,0,1,2.18,0h0Z" transform="translate(-3896 -126)"/>
  </g>
</svg>
