<svg width="22" height="28" viewBox="0 0 22 28" fill="none" xmlns="http://www.w3.org/2000/svg">
<mask id="mask0" mask-type="alpha" maskUnits="userSpaceOnUse" x="0" y="0" width="22" height="28">
<path fill-rule="evenodd" clip-rule="evenodd" d="M21.5385 0L0 0V28H21.5385V0V0Z" fill="white"/>
</mask>
<g mask="url(#mask0)">
<path fill-rule="evenodd" clip-rule="evenodd" d="M0 26.9628V1.03717C0 0.464624 0.449769 0 1.00401 0H12.0021C12.2792 0 12.5298 0.116156 12.7113 0.303652L21.2445 9.1187C21.4411 9.32083 21.5385 9.58607 21.5385 9.85222V26.9628C21.5385 27.5363 21.0887 28 20.5344 28H1.00401C0.449769 28 0 27.5363 0 26.9628V26.9628ZM6.0285 22.2544C5.47426 22.2544 5.02449 21.7898 5.02449 21.2172C5.02449 20.6447 5.47426 20.18 6.0285 20.18H15.5108C16.0651 20.18 16.514 20.6447 16.514 21.2172C16.514 21.7898 16.0651 22.2544 15.5108 22.2544H6.0285ZM6.0285 16.8088C5.47426 16.8088 5.02449 16.3451 5.02449 15.7725C5.02449 15.2 5.47426 14.7353 6.0285 14.7353H15.5108C16.0651 14.7353 16.514 15.2 16.514 15.7725C16.514 16.3451 16.0651 16.8088 15.5108 16.8088H6.0285ZM19.5313 10.8894H12.0021C11.4479 10.8894 10.9981 10.4248 10.9981 9.85222V2.07435H2.00803V25.9257H19.5313V10.8894ZM13.0052 3.54047V8.81505H18.1112L13.0052 3.54047Z" fill="white"/>
</g>
</svg>
